<svg viewBox="0 0 100 100" xmlns="http://www.w3.org/2000/svg" xmlns:xlink="http://www.w3.org/1999/xlink"><defs><path id="0" d="m44.44 71.11h-44.44v-70.69h88.87v70.69z"/><mask id="1" fill="#fff"><use xlink:href="#0"/></mask></defs><g fill="#fff" fill-rule="evenodd" transform="translate(5 11)"><path d="m67.894 4.296c4.753.027 9.211.715 12.535 1.942 2.899 1.062 4.623 2.438 4.614 3.667 0 1.245-1.819 2.629-4.772 3.657-5.824-.906-11.795-1.176-17.717-.801l-.8-3.475c-.079-.34-.193-.687-.331-1.028-.138-.331-.296-.662-.487-.984-.183-.322-.392-.636-.602-.923-.218-.287-.461-.583-.723-.862-.138-.148-.277-.287-.426-.426 2.621-.516 5.607-.786 8.707-.768m-21.47 5.03l2.088.035c-.009.105-.017.218-.017.331 0 .06 0 .123.008.183 0 .009.004.018.005.027-.062 2.257 2.02 4.33 5.89 5.876 0 .592.009.879.025 1.036-.044.287-.148.583-.331.888-.087.156-.19.296-.33.47-.087.113-.192.218-.287.322l-7.539-8.09c-.479-.514-.566-.844-.574-.879.044-.052.331-.2.993-.2v-1.089l.068 1.09m8.706 3.98c-2.644-.988-4.293-2.261-4.436-3.425.012-.159.059-.32.134-.484l1.576.026c.775.009 1.498.331 2.028.897.523.566.793 1.307.748 2.09l-.051.897m-14.05 15.691l-32.622 30.407-5.396-1.185-.81-5.476 3.622-3.38 4.892-2.857c.139-.087.261-.19.356-.33l3.117-4.572 4.805-2.778c.14-.088.262-.201.357-.331l3.161-4.711 12.309-11.451c.298-.278.411-.697.307-1.08l-1.489-5.503c-.053-.226-.087-.461-.104-.714-.019-.261-.019-.532 0-.81.026-.278.061-.557.113-.836.052-.287.123-.575.209-.853.087-.287.192-.557.304-.828.115-.269.244-.522.385-.766.14-.235.287-.461.443-.661.157-.2.322-.383.487-.54l5.938-5.538c.167-.156.357-.305.567-.444.218-.148.452-.278.706-.401.252-.122.514-.236.784-.331.269-.096.556-.174.843-.244.287-.06.574-.113.862-.148.278-.036.558-.052.854-.052.278 0 .547.018.8.061.252.026.489.078.715.148l7.749 2.377c.13.044.26.087.391.148 0 0 0 .009.009.009.165.173.391.287.636.314.008.008.008.008.017.008.106.052.209.122.314.192.236.156.463.331.68.514.227.192.435.401.636.61.199.218.391.444.565.679.167.227.331.47.47.714.14.236.252.479.357.723.094.227.165.461.218.688l.722 3.152c-1.018.087-2.028.201-3.039.332l.043-.732c.069-1.376-.399-2.691-1.331-3.692-.94-1-2.21-1.568-3.586-1.585l-5.99-.096h-.095c-2.01 0-2.726.924-2.969 1.472-.253.566-.463 1.741.966 3.274l7.653 8.203c-.192.226-.384.453-.566.679-.401.47-.81 1-1.298 1.663-.497.67-.931 1.297-1.314 1.932-.34.549-.627 1.106-.854 1.646-.226.523-.427 1.106-.592 1.733l-.036.131c0 .008-.043.148-.043.156 0 .018-.009.036-.009.044-.078.287-.148.574-.192.836-.009.044-.018.078-.018.122 0 .009-.008.009-.008.018-.053.366-.115.828-.184 1.35l-4.719-1.646c-.375-.132-.802-.045-1.097.233m39.25 35.26c-.349.983-1.106 1.949-2.02 2.708-.922.756-2 1.315-3.01 1.454-.009.009-.019.009-.019.009-.617.078-3.882.497-7.399.504h-.374c-.113 0-.236 0-.383-.008h-.349l-.365-.009c-3.238-.097-6.12-.497-6.66-.584h-.018c-1.01-.156-2.09-.714-2.994-1.489-.906-.766-1.647-1.75-1.985-2.734-.019-.06-.052-.157-.096-.278-1.244-3.719-4.267-13.07-5.327-19.357l-.061-.383c-.025-.165-.053-.322-.069-.497l-.053-.365c-.009-.018-.009-.025-.009-.044v-.027c-.009-.052-.017-.114-.025-.165 0-.018-.009-.036-.009-.053 0-.026-.009-.095-.009-.095-.27-2.063-.401-4.223-.385-6.435.009-1.124.044-2.256.131-3.396.018-.356.053-.723.087-1.089.028-.348.061-.705.106-1.062v-.018l.017-.14c.07-.514.123-.958.182-1.358.011-.026.011-.052.011-.078h.008c.026-.191.079-.4.14-.61.009-.026.009-.052.018-.078l.008-.008.07-.27c.139-.515.305-.993.488-1.428.182-.452.427-.906.704-1.358.357-.583.75-1.158 1.21-1.785.452-.618.845-1.106 1.219-1.55.209-.26.427-.514.644-.766.157-.191.322-.374.487-.557.105-.122.218-.244.34-.366l.114-.113c.26-.27.522-.54.793-.862.009-.008.052-.069.059-.087.115-.148.237-.322.349-.505.027-.044.053-.078.078-.123.349-.601.558-1.219.619-1.846.009-.052.009-.156.009-.209-.009-.087-.017-.27-.017-.67.181.044.382.096.574.148l.043-.758c1.21-.165 2.43-.296 3.648-.4.366-.036.731-.06 1.097-.087.078-.009.173-.018.26-.026h.017c.106.018.209.035.315.044.181.018.356.044.539.052l-.026-.139c3.536-.209 7.088-.183 10.612.087h.027c1.801.131 3.595.332 5.38.584-.009.226-.009.436-.019.627-.009.392-.018.67-.018.748-.009.044 0 .087 0 .131.053.627.253 1.254.611 1.872.13.236.277.436.4.601l.105.14c.227.287.487.557.748.828.148.156.305.322.452.487.375.436.749.88 1.125 1.35.425.514.827 1.054 1.192 1.55.471.662.853 1.245 1.184 1.794.27.461.504.914.688 1.367.182.444.34.923.469 1.436l.052.192c.009.043.018.087.026.13.011.009.011.018.011.018 0 .009.008.018.008.018v.018c.052.2.104.401.13.583 0 .018.011.027.011.035v.018.009l.018.122c.069.505.148 1.167.217 1.959 0 .009 0 .018.009.035.236 2.683.391 6.844-.253 11.397l-.008.105h-.009c0 .035-.009.069-.009.104l-.018.105v.025c-.008.001-.008.036-.008.053v.009c-.009 0-.009 0-.009.009 0 .018 0 .044-.011.06l-.018.174c-.008.009-.008.018-.008.026-.009.018-.018.087-.018.095l-.061.392c-1.01 6.02-3.951 14.942-5.623 19.731-.044.15-.079.245-.104.325m8.323-32.784v-.027c-.078-.844-.165-1.55-.235-2.081 0-.009-.011-.044-.011-.087 0-.035-.009-.061-.017-.114-.043-.278-.113-.565-.191-.844-.011-.052-.011-.07-.027-.131l-.061-.218c-.156-.61-.339-1.193-.555-1.716-.227-.557-.514-1.115-.845-1.663-.357-.601-.776-1.236-1.289-1.95-.391-.54-.81-1.106-1.271-1.663-.385-.47-.766-.948-1.175-1.402-.167-.192-.339-.374-.515-.557-.207-.218-.426-.444-.67-.748-.087-.122-.182-.252-.26-.401-.184-.314-.287-.618-.323-.915.009-.209.027-.775.036-1.428 3.848-1.394 5.963-3.371 5.972-5.608.017-2.291-2.073-4.267-6.03-5.73-3.56-1.306-8.278-2.046-13.285-2.073-4.03-.026-7.896.409-11.145 1.272-.252-.122-.522-.218-.775-.296l-7.756-2.377c-.34-.105-.688-.183-1.055-.226-.644-.096-1.42-.105-2.202-.009-.365.044-.741.105-1.096.183-.368.087-.733.191-1.081.314-.356.131-.706.27-1.018.427-.34.165-.663.348-.959.548-.305.209-.592.427-.843.662l-5.93 5.538c-.252.236-.497.505-.722.793-.218.287-.427.592-.618.914-.174.314-.348.645-.488.984-.148.332-.278.688-.392 1.054-.104.348-.191.714-.269 1.088-.069.375-.114.74-.14 1.098-.027.374-.027.74 0 1.097.018.366.07.732.157 1.106l1.331 4.903-11.918 11.09c-.061.061-.115.122-.157.192l-3.092 4.596-4.804 2.778c-.14.079-.262.191-.349.322l-3.126 4.58-4.788 2.796c-.069.043-.131.095-.19.148l-4.128 3.848c-.261.244-.392.601-.339.958l1 6.774c.06.452.399.81.843.905l6.697 1.472c.078.019.156.026.235.026.271 0 .531-.104.739-.287l32.553-30.354 4.604 1.602c-.095 1.254-.14 2.516-.148 3.761-.018 2.308.123 4.563.401 6.705v.052c.009.018.009.036.009.052 0 .018.009.078.017.095 0 .009.009.096.009.096 0 .026.009.044.009.069 0 .019.009.035.009.052v.026l.053.348c.027.183.052.356.078.54l.06.374c1.046 6.226 3.848 15.03 5.425 19.714l.078.253c.009.009.009.025.018.043.94 2.734 3.884 5.225 6.694 5.66.019 0 .028.009.044.009.793.114 3.63.497 6.912.593l.366.018h.376c.137.009.277.009.408.009h.401c3.543-.009 6.756-.401 7.687-.532h.025c2.821-.409 5.79-2.857 6.764-5.59.009-.009.009-.026.019-.044l.104-.296c1.688-4.85 4.675-13.915 5.712-20.1l.069-.452c.009-.025.009-.052.009-.087h.009l.017-.174c.009-.018.009-.035.009-.052.009-.009.009-.019.009-.027 0-.018 0-.026.009-.044 0-.044.011-.078.019-.104l.009-.079c0-.018 0-.035.009-.052l.018-.122c.667-4.756.51-9.08.259-11.886" stroke="#fff" stroke-width="1.5" mask="url(#1)" transform="translate(0 .474)"/><path d="m67.55 64.26c-.444 0-.81-.41-.81-.898.009-.496.374-.906.818-.906.209.009.411.096.558.252.165.174.252.409.252.662 0 .488-.365.889-.818.889m.025-3.98h-.018c-1.637 0-2.985 1.376-2.994 3.065-.008 1.699 1.323 3.084 2.986 3.092 1.644 0 2.985-1.368 2.994-3.056.009-.81-.296-1.576-.845-2.16-.563-.601-1.314-.932-2.123-.941"/><path d="m76.67 42.07l-9.08 9.08-9.06-9.06c-.905-.906-1.403-2.12-1.403-3.421 0-1.253.506-2.476 1.403-3.421.905-.905 2.12-1.404 3.42-1.404 1.272 0 2.462.492 3.421 1.404l.407.406c.511.512 1.208.788 1.929.776.683-.018 1.31-.3 1.768-.794l.388-.388c.905-.905 2.12-1.404 3.421-1.404 1.252 0 2.475.506 3.42 1.404.905.905 1.403 2.12 1.404 3.38-.036.979-.314 2.371-1.441 3.442m1.659-8.486c-1.401-1.331-3.191-2.063-5.04-2.063-1.922 0-3.72.74-5.064 2.084l-.407.407c-.071.076-.114.094-.167.095-.032.002-.134-.006-.223-.095l-.428-.428c-1.421-1.35-3.165-2.063-5.04-2.063-1.921 0-3.719.74-5.084 2.105-1.33 1.401-2.063 3.192-2.063 5.04 0 1.922.739 3.721 2.083 5.065l10.701 10.703 10.691-10.693c1.335-1.275 2.08-3.02 2.152-5.075 0-1.922-.74-3.722-2.105-5.086l-4.122-.446" stroke="#fff"/></g></svg>